HIERARCHY
ROOT Hips
{
	OFFSET -0.001795 -0.223333 0.028219
	CHANNELS 6 Xposition Yposition Zposition Zrotation Yrotation Xrotation 
	JOINT LeftUpLeg
	{
		OFFSET 0.069520 -0.091406 -0.006815
		CHANNELS 3 Zrotation Yrotation Xrotation
		JOINT LeftLeg
		{
			OFFSET 0.034277 -0.375199 -0.004496
			CHANNELS 3 Zrotation Yrotation Xrotation
			JOINT LeftFoot
			{
				OFFSET -0.013596 -0.397961 -0.043693
				CHANNELS 3 Zrotation Yrotation Xrotation
				JOINT LeftToe
				{
					OFFSET 0.026358 -0.055791 0.119288
					CHANNELS 3 Zrotation Yrotation Xrotation
					End Site
					{
						OFFSET 0.000000 0.000000 0.000000
					}
				}
			}
		}
	}
	JOINT RightUpLeg
	{
		OFFSET -0.067670 -0.090522 -0.004320
		CHANNELS 3 Zrotation Yrotation Xrotation
		JOINT RightLeg
		{
			OFFSET -0.038290 -0.382569 -0.008850
			CHANNELS 3 Zrotation Yrotation Xrotation
			JOINT RightFoot
			{
				OFFSET 0.015774 -0.398415 -0.042312
				CHANNELS 3 Zrotation Yrotation Xrotation
				JOINT RightToe
				{
					OFFSET -0.025372 -0.048144 0.123348
					CHANNELS 3 Zrotation Yrotation Xrotation
					End Site
					{
						OFFSET 0.000000 0.000000 0.000000
					}
				}
			}
		}
	}
	JOINT Spine
	{
		OFFSET -0.002533 0.108963 -0.026696
		CHANNELS 3 Zrotation Yrotation Xrotation
		JOINT Spine1
		{
			OFFSET 0.005487 0.135180 0.001092
			CHANNELS 3 Zrotation Yrotation Xrotation
			JOINT Spine2
			{
				OFFSET 0.001457 0.052922 0.025425
				CHANNELS 3 Zrotation Yrotation Xrotation
				JOINT Neck
				{
					OFFSET -0.002778 0.213870 -0.042857
					CHANNELS 3 Zrotation Yrotation Xrotation
					JOINT Head
					{
						OFFSET 0.005152 0.064970 0.051349
						CHANNELS 3 Zrotation Yrotation Xrotation
						End Site
						{
							OFFSET 0.000000 0.000000 0.000000
						}
					}
				}
				JOINT LeftShoulder
				{
					OFFSET 0.078845 0.121749 -0.034090
					CHANNELS 3 Zrotation Yrotation Xrotation
					JOINT LeftArm
					{
						OFFSET 0.090977 0.030469 -0.008868
						CHANNELS 3 Zrotation Yrotation Xrotation
						JOINT LeftForeArm
						{
							OFFSET 0.259612 -0.012772 -0.027456
							CHANNELS 3 Zrotation Yrotation Xrotation
							JOINT LeftHand
							{
								OFFSET 0.249234 0.008986 -0.001171
								CHANNELS 3 Zrotation Yrotation Xrotation
								End Site
								{
									OFFSET 0.000000 0.000000 0.000000
								}
							}
						}
					}
				}
				JOINT RightShoulder
				{
					OFFSET -0.081759 0.118833 -0.038615
					CHANNELS 3 Zrotation Yrotation Xrotation
					JOINT RightArm
					{
						OFFSET -0.096012 0.032551 -0.009143
						CHANNELS 3 Zrotation Yrotation Xrotation
						JOINT RightForeArm
						{
							OFFSET -0.253742 -0.013329 -0.021401
							CHANNELS 3 Zrotation Yrotation Xrotation
							JOINT RightHand
							{
								OFFSET -0.255298 0.007772 -0.005559
								CHANNELS 3 Zrotation Yrotation Xrotation
								End Site
								{
									OFFSET 0.000000 0.000000 0.000000
								}
							}
						}
					}
				}
			}
		}
	}
}
MOTION
Frames: 14
Frame Time: 0.050000
0.000000 0.933535 0.000000 -2.514968 6.689565 -1.461062 0.256273 0.088277 1.161624 -2.232238 -0.534212 22.210930 2.771709 4.050068 -3.725637 0.000000 0.000000 0.000000 -9.794018 -0.089561 -30.069148 4.732545 -1.448705 32.915468 -5.358672 -14.213879 12.034778 0.000000 0.000000 0.000000 10.600076 -3.632930 23.127227 -5.204806 2.066549 -21.435278 -1.163376 8.757081 30.447776 11.387746 -3.428173 -24.481999 0.000000 0.000000 0.000000 -17.536329 -8.645105 0.428538 -49.909561 -11.658191 -3.177935 -8.514846 -38.061373 3.716097 0.000000 0.000000 0.000000 17.512391 -3.610728 0.002822 60.144758 9.955547 -3.480548 31.137196 44.357709 18.148975 0.000000 0.000000 0.000000 
0.021461 0.938097 -0.031869 -3.365986 5.207336 -0.038256 0.585189 -0.063074 -0.613807 -5.124487 0.454741 20.102183 4.198044 6.029685 -6.899647 0.000000 0.000000 0.000000 -8.414244 0.456557 -34.866222 6.648553 -2.779781 44.342434 -4.894053 -13.342510 9.398041 0.000000 0.000000 0.000000 10.311651 -3.729879 24.311557 -4.306019 1.779389 -21.804679 1.243514 13.425462 30.047724 11.236395 -2.858093 -23.180788 0.000000 0.000000 0.000000 -17.028551 -9.453071 -0.170165 -50.651160 -11.645322 -2.913454 -9.185193 -36.416900 3.305976 0.000000 0.000000 0.000000 19.364855 -4.708065 0.309995 55.432947 10.090298 -3.686598 39.297409 48.255093 25.007835 0.000000 0.000000 0.000000 
0.042709 0.939850 -0.061529 -2.912309 5.065433 -0.809588 -0.758681 0.001774 -0.120474 -5.027082 0.465619 17.545519 4.088372 7.021416 -3.883223 0.000000 0.000000 0.000000 -6.771481 0.983619 -37.135460 4.927331 -2.307709 54.767364 -3.874670 -11.269418 8.450672 0.000000 0.000000 0.000000 11.480980 -4.272461 26.051213 -5.386279 2.171246 -18.560930 -0.372451 11.626679 28.784902 10.243324 -2.986859 -21.214551 0.000000 0.000000 0.000000 -17.383580 -8.981685 0.128364 -49.545764 -11.614327 -2.943775 -6.411085 -36.855375 2.674677 0.000000 0.000000 0.000000 17.484028 -1.541494 1.484391 54.910122 13.434340 -2.033861 34.721243 53.445358 24.830750 0.000000 0.000000 0.000000 
0.063078 0.937861 -0.088093 -2.468642 5.778036 -1.330766 -2.597103 0.057353 0.136468 -4.912319 0.407342 17.105047 4.150543 7.175777 -3.680788 0.000000 0.000000 0.000000 -5.848744 1.209671 -40.472816 5.052363 -3.143890 64.197666 -3.280155 -9.954421 7.668733 0.000000 0.000000 0.000000 11.643849 -5.058680 29.873195 -6.973314 2.506126 -21.733935 1.588832 11.398240 31.435491 10.094893 -2.524954 -23.176612 0.000000 0.000000 0.000000 -18.997035 -10.056694 0.450517 -49.032413 -11.455856 -3.077675 -3.607777 -37.952939 1.873965 0.000000 0.000000 0.000000 18.463376 -1.972902 1.468571 51.552431 14.791775 -2.099497 37.058720 57.552403 28.775209 0.000000 0.000000 0.000000 
0.083731 0.935475 -0.111833 -2.443146 6.919158 -1.110368 -4.008900 0.032973 -0.311814 -4.780710 0.351768 15.300761 4.170237 7.583284 -2.530862 0.000000 0.000000 0.000000 -4.474354 1.555247 -43.875241 5.374836 -4.097184 68.412271 -4.500836 -12.349128 7.354210 0.000000 0.000000 0.000000 11.772072 -5.708237 32.281509 -6.264431 2.386500 -20.725579 1.057608 10.802580 29.915001 10.578119 -2.627857 -24.429340 0.000000 0.000000 0.000000 -18.437009 -10.592198 0.850448 -49.633216 -10.278954 -3.534659 -2.025832 -40.639415 1.388694 0.000000 0.000000 0.000000 19.430501 -0.742214 2.188293 48.556182 16.682440 -1.460335 30.655236 60.406590 25.739305 0.000000 0.000000 0.000000 
0.104649 0.931882 -0.131746 -1.786854 7.140232 -0.370889 -5.722481 -0.024753 -0.952686 -5.110452 0.437803 13.722371 4.017211 7.493691 -1.920785 0.000000 0.000000 0.000000 -3.455290 1.968598 -47.011359 6.326539 -4.870576 68.349269 -4.411330 -12.243966 7.884493 0.000000 0.000000 0.000000 11.967576 -6.082781 33.560221 -7.036710 2.543994 -21.546919 1.277067 10.097124 30.999169 12.230703 -3.618665 -25.609215 0.000000 0.000000 0.000000 -17.984322 -11.728646 1.754597 -49.619048 -9.928063 -3.901583 -1.386510 -43.030373 1.346537 0.000000 0.000000 0.000000 19.096862 -0.860201 1.973677 48.127055 18.577501 -0.820812 25.964349 61.291576 23.123882 0.000000 0.000000 0.000000 
0.126506 0.930223 -0.147106 -1.389417 7.551348 0.520168 -7.723476 -0.023941 -1.124511 -4.271597 0.294933 11.200442 3.907703 7.621080 -0.960635 0.000000 0.000000 0.000000 -2.419870 2.341058 -47.913988 7.588900 -5.407358 62.550336 -5.279464 -13.910625 8.184886 0.000000 0.000000 0.000000 11.771752 -6.242254 34.250805 -6.945618 2.478705 -22.328193 1.349190 8.875130 31.288057 13.108107 -4.092919 -27.048320 0.000000 0.000000 0.000000 -17.724934 -12.555679 2.547512 -49.206454 -10.250969 -3.895359 -1.429339 -44.441618 1.583099 0.000000 0.000000 0.000000 19.989134 -0.404955 2.124347 46.538066 21.414852 0.021786 17.029130 60.224557 16.784452 0.000000 0.000000 0.000000 
0.149861 0.931866 -0.156754 -1.135718 5.878504 1.489785 -9.355441 -0.247050 -2.503739 -3.549272 0.215446 10.356511 4.194322 8.867087 0.718204 0.000000 0.000000 0.000000 -0.523663 3.477391 -47.081196 9.051851 -4.941670 52.976676 -5.301425 -14.273597 10.874995 0.000000 0.000000 0.000000 10.801059 -5.739340 34.349087 -6.720636 2.398969 -21.940640 1.655077 8.629076 30.689719 13.583611 -4.144738 -29.023507 0.000000 0.000000 0.000000 -16.865338 -13.914242 3.621649 -49.783933 -11.299049 -3.614809 -0.700406 -45.112095 1.487632 0.000000 0.000000 0.000000 20.748547 0.460970 2.456005 45.724993 23.222523 0.603260 13.074299 57.870384 13.363283 0.000000 0.000000 0.000000 
0.175649 0.934446 -0.160604 -1.474437 5.189105 2.743303 -9.245300 -0.464667 -3.907799 -3.969032 0.306839 10.420603 4.064607 9.076693 2.077614 0.000000 0.000000 0.000000 0.874335 3.932900 -43.602850 12.061237 -5.235657 40.806188 -7.183677 -17.831786 14.393450 0.000000 0.000000 0.000000 11.732565 -5.696680 32.657083 -7.410009 2.534592 -21.994349 1.337401 7.128742 30.202774 13.270014 -4.053522 -30.040902 0.000000 0.000000 0.000000 -16.635626 -14.697962 4.532277 -49.922875 -13.018580 -3.030499 -2.729017 -44.792767 2.609241 0.000000 0.000000 0.000000 20.955424 -0.176740 1.609349 45.808181 23.456419 0.776413 14.908118 55.347856 13.261667 0.000000 0.000000 0.000000 
0.204648 0.935300 -0.158371 -0.895058 4.514836 3.550895 -9.618727 -0.626036 -4.859616 -5.403585 0.593086 12.740895 3.775027 8.351998 1.522787 0.000000 0.000000 0.000000 1.586166 3.959800 -39.650268 12.972574 -4.545843 31.950681 -8.399221 -19.898064 17.036684 0.000000 0.000000 0.000000 11.688293 -5.352605 31.195309 -6.930575 2.330797 -23.311751 0.412902 4.633648 31.675126 14.071568 -4.703656 -32.002268 0.000000 0.000000 0.000000 -15.452501 -14.445696 5.227004 -51.077299 -14.775510 -2.814445 -5.953573 -46.495163 4.682859 0.000000 0.000000 0.000000 21.352520 1.691557 2.039039 44.906989 24.304341 0.906860 13.573182 55.178778 11.921517 0.000000 0.000000 0.000000 
0.236242 0.934043 -0.151346 -0.247373 1.054496 4.076226 -9.459595 -0.764328 -5.590214 -9.030547 1.560995 13.860568 6.447806 13.789106 2.615183 0.000000 0.000000 0.000000 4.121625 4.496057 -34.005944 10.565373 -2.645595 25.655583 -10.219534 -23.190319 18.221897 0.000000 0.000000 0.000000 11.006506 -4.565181 29.882220 -6.337068 2.128759 -23.391543 0.119396 5.534760 31.478318 14.642640 -5.047769 -32.412104 0.000000 0.000000 0.000000 -14.246279 -14.903526 5.629261 -52.685065 -15.487188 -2.547737 -10.972820 -49.196840 7.512407 0.000000 0.000000 0.000000 21.194915 0.779992 1.220536 44.848128 23.828236 0.802039 18.287947 55.495761 14.401062 0.000000 0.000000 0.000000 
0.269630 0.932493 -0.143293 0.936004 -1.205244 3.994270 -8.250636 -0.827991 -6.068488 -10.884338 2.339692 16.870398 4.503683 9.542526 0.227104 0.000000 0.000000 0.000000 4.508747 4.052956 -29.091276 7.183754 -1.220535 23.157590 -8.154932 -20.270947 13.359661 0.000000 0.000000 0.000000 11.720817 -4.350263 28.682556 -8.153079 2.581359 -22.525938 -0.231449 3.103110 29.667123 13.724027 -5.482237 -30.222317 0.000000 0.000000 0.000000 -15.441902 -13.370640 5.689689 -52.190473 -17.081221 -1.713485 -17.628924 -49.163947 11.163407 0.000000 0.000000 0.000000 19.553087 1.020967 0.288296 47.840465 23.107381 1.297196 22.974298 53.919780 15.668457 0.000000 0.000000 0.000000 
0.303002 0.933426 -0.141000 1.422690 -3.072826 3.343177 -6.304445 -0.933770 -7.079393 -10.798835 2.896898 22.247333 0.612036 0.067522 -2.908366 0.000000 0.000000 0.000000 2.438044 3.479472 -27.498437 5.067061 -0.424551 23.018793 -5.383603 -15.243251 10.025602 0.000000 0.000000 0.000000 12.792124 -4.609313 29.905165 -6.732343 2.157841 -23.927984 -2.114448 3.453918 30.042504 14.201909 -5.671071 -30.931171 0.000000 0.000000 0.000000 -15.892019 -13.955879 6.135752 -51.430266 -19.622762 -0.575298 -21.735701 -51.595044 13.956886 0.000000 0.000000 0.000000 19.441126 0.027809 -0.451301 48.618184 23.463570 1.568359 25.113978 53.606330 16.593567 0.000000 0.000000 0.000000 
0.335172 0.936803 -0.148006 0.987285 -6.237722 2.454462 -4.582660 -0.950538 -7.628112 -10.376276 3.308565 24.548941 0.640918 0.380586 -2.579181 0.000000 0.000000 0.000000 1.056104 3.114196 -25.659505 3.775941 0.118646 21.149237 -2.534897 -9.879631 9.235402 0.000000 0.000000 0.000000 13.071496 -4.598678 32.062843 -6.728607 2.146838 -23.062360 -1.300614 1.960311 27.892772 14.941980 -6.790974 -29.268413 0.000000 0.000000 0.000000 -18.008488 -15.810665 7.949046 -48.941273 -21.312057 0.194564 -22.991406 -54.191496 15.738177 0.000000 0.000000 0.000000 18.389834 1.017215 -0.716297 49.594464 22.956715 1.900242 27.152018 55.393848 17.475869 0.000000 0.000000 0.000000 
